<?xml version="1.0" encoding="utf-8"?>
<!-- Generator: Adobe Illustrator 27.0.0, SVG Export Plug-In . SVG Version: 6.00 Build 0)  -->
<svg version="1.1" id="Layer_1" xmlns="http://www.w3.org/2000/svg" xmlns:xlink="http://www.w3.org/1999/xlink" x="0px" y="0px"
	 viewBox="0 0 274.67 271.46" style="enable-background:new 0 0 274.67 271.46;" xml:space="preserve">
<style type="text/css">
	.st0{fill-rule:evenodd;clip-rule:evenodd;}
	.st1{font-family:'Arial-BoldMT';}
	.st2{font-size:12.5294px;}
	.st3{fill-rule:evenodd;clip-rule:evenodd;fill:#FFFFFF;}
</style>
<g>
	<g>
		<path class="st0" d="M18.32,58.99c0,0,98.12-10.21,193.1-43.39c0,0,3.62-1.75,3.73,2.17c0.14,3.95,5.73,60.45,7.35,77.6
			c0,0,11.02-2.59,12.52,9.13c0,0,2.2,10.19-9.52,20.26c0,0,5.73,48.07,16.2,83.05c0,0,1.36,3.95-2.17,4.34
			c0,0-96.69,8.27-193.79,43.67c0,0-3.58,1.67-3.17-3.09c0,0,4.63-25.61-10.62-117.62c0,0-8.98,3.56-15.52,2.34
			c0,0-10.74-2.34-4.62-10.52c0,0,4.48-5.85,17.83-9.1c0,0-5.98-37.02-14.01-54.72C15.62,63.11,13.42,59.77,18.32,58.99z"/>
		<path class="st0" d="M5.69,60.25c0,0,9.66,18.93,18.77,58.56l-1.64,0.25c0,0-11.01-36.77-22.03-53.91
			C0.79,65.15-2.9,61.75,5.69,60.25z"/>
		<path class="st0" d="M113.12,36.28c0,0,40.91-11.22,96.63-35.88c0,0,3.48-1.72,3.95,1.92l0.61,3.79
			C214.31,6.11,188.76,17.5,113.12,36.28z"/>
		<path class="st0" d="M41.45,264.2c0,0,34.9-14.06,100.1-30.95c0,0-58.1,18.48-97.25,37.91c0,0-3.33,1.59-2.85-2.53V264.2z"/>
		<path class="st0" d="M228.51,128.99c0,0,7.74,45.73,21.49,83.69l3.01-0.67c0,0,3.4-0.81,1.22-4.9
			C254.23,207.12,238.64,173.13,228.51,128.99z"/>
	</g>
	<g>
		<path class="st0" d="M213.37,112.77c1.06-2.23,2.14-4.01,3.23-5.32l2.39-2.42c0.89-0.7,1.75-1.09,2.67-1.2
			c2.23,0,2.59,2.62,1.14,7.9c-0.86,3.4-2.42,6.43-4.51,9.02c-1.53,1.89-2.78,3.09-3.87,3.62c-0.97,0.36-1.67,0.42-2.17,0.17
			c-0.86-0.42-1.22-1.75-1.11-3.98C211.25,118.22,212.01,115.66,213.37,112.77L213.37,112.77z M210.45,129.21
			c8.91-0.97,15.89-5.62,20.9-13.92l0.95-1.92c0,0,2.23-5.01,1.14-8.79c-0.92-3.12-3.03-4.29-3.03-4.29
			c-1.95-1.28-4.68-1.5-8.1-0.75c-8.32,1.67-14.53,6.35-18.34,14.11c-0.95,1.2-1.7,2.73-2.23,4.65c-0.5,1.92-0.67,3.73-0.36,5.4
			C202.01,128.02,205.02,129.88,210.45,129.21L210.45,129.21z"/>
		<path class="st0" d="M191.19,108.31l-0.2-0.14v-0.05c-1.56-2.73-3.95-3.92-7.18-3.76c-1.09,0.08-2.28,0.47-3.65,1.22
			c-1.06,0.64-1.75,1.09-1.92,1.5c-0.33,0.53-0.17,0.86,0.39,1.03c1.53,0.28,2.56,0.53,3.09,0.81c1.53,0.86,2.25,2.31,2.2,4.34
			c0.06,4.62-0.84,10.08-2.56,16.37c-1,2.2-0.36,3.23,1.89,3.17l6.37-0.83c2.45-0.61,3.73-1.39,3.84-2.45l0.06-1.89
			c0.08-5.54-0.25-10.13-0.78-13.75l0.03-0.31c2.23-4.37,5.07-7.01,8.71-7.99c1.45-0.39,2.76,0.06,3.98,1.36
			c0.39,0.33,0.67,0.5,0.83,0.33c0.97-0.25,1.84-1.22,2.67-2.78c0.78-1,1.06-2.23,0.95-3.65c-0.08-1.86-1.45-2.81-3.95-2.7
			c-5.01,0.39-9.91,3.76-14.67,10.02L191.19,108.31L191.19,108.31z"/>
		<path class="st0" d="M154.2,87.44c-1-2.14-2.89-3.03-5.73-2.62c-4.45,0.61-7.58,1.56-9.37,2.7c-0.39,0.28-0.26,0.58,0.4,0.75
			c1.63,0.53,2.84,2.17,3.7,4.95c3.81,10.85,6.07,24.21,6.73,39.91c0.03,1.78,0.53,2.95,1.36,3.34c2,1.2,5.01,0.5,9.02-2.03
			c3.42-2.12,6.85-5.06,10.49-9.02c3.65-3.84,5.82-7.54,6.6-10.91c1-3.98-0.33-6.65-3.95-7.9c-2.73-0.89-5.73-0.75-9.16,0.47
			c-2.12,0.72-4.17,1.89-6.21,3.45l-0.28-0.25c-0.95-8.68-1.64-13.97-2.09-15.92l-0.7-3.56C154.81,89.33,154.53,88.27,154.2,87.44
			L154.2,87.44z M159.82,129.8l-1.56-15.25c3.79-2.95,6.37-3.2,7.74-0.89c1.17,2,1.06,4.82-0.36,8.43
			C164.22,125.71,162.27,128.32,159.82,129.8L159.82,129.8z"/>
		<path class="st0" d="M172.73,136.87c-5.07,6.4-10.69,11.8-16.75,16.12c-7.79,5.48-16.99,9.69-27.58,12.61
			c-16.67,4.54-31.59,4.54-44.75,0l-0.58-0.14c-0.24,0.17-0.28,0.53-0.17,1.14c1.21,16.62,13.22,28.03,36.17,34.4
			c8.36,2.28,16.55,2.78,24.59,1.59c8.35-1.25,15.45-4.31,21.4-9.16c6.35-5.18,10.58-11.94,12.69-20.4
			c2.39-9.32,2.06-20.07-1.06-32.37l-0.39-1.28c-0.2-0.25-0.39-0.31-0.67-0.25c-0.61,0.08-0.81,0.45-0.61,1.14
			c0.89,3.79,1.42,7.9,1.61,12.22c0.17,5.4-0.25,10.44-1.34,15.22c-2.73,12.5-9.55,21.04-20.35,25.52
			c-10.52,4.23-21.32,4.82-32.42,1.73c-6.04-1.81-11.42-4.31-16.25-7.68c-3.98-2.67-6.9-5.4-8.88-8.18
			c-1.1-1.53-1.82-2.92-2.13-4.15l0.15-0.08c4.04,0.42,8.7,0.45,13.96,0.06c9.92-0.7,19.15-2.67,27.48-5.93
			c9.38-3.73,17.84-9.16,25.52-16.34c6.18-5.93,10.19-11.22,12.08-15.87c0.33-0.64,0.33-1.11-0.11-1.28c-0.39-0.17-0.72,0-0.95,0.53
			L172.73,136.87L172.73,136.87z"/>
		<path class="st0" d="M18.24,135.25c3.15,0.25,7.7-0.56,13.5-2.34l11.38-2.92l2.73,17.76c0.63,2.87,1.25,4.56,1.93,5.01l1.39,0.7
			l3.63-0.25c4.65-0.45,6.96-1.25,6.96-2.45l-0.18-1.34l-3.67-22.71l12.58-3.2l2.56,17.14l1.21,5.9c0.68,2,1.82,2.92,3.38,2.73
			c3.53-0.25,5.87-0.89,7.08-1.89c0.42-0.31,0.53-0.78,0.28-1.42l-0.56-1.31c-2.07-6.04-3.69-13.67-4.91-22.91l14.5-2.14
			c-6.72,6.99-9.03,13.03-6.83,18.12c0.79,1.89,2,3.31,3.63,4.06c1.56,0.67,3.31,0.84,5.27,0.45c4.33-0.81,8.21-3.53,11.81-8.13
			c1.99,5.82,6.14,7.77,12.46,5.79c0.31-0.08,0.49-0.17,0.49-0.45c0.04-0.25-0.14-0.58-0.58-0.83c-2.14-0.97-3.35-3.29-3.52-6.85
			c-0.18-2.23,0.14-5.26,0.77-9.21l0.96-5.46c0-1.64-0.88-2.2-2.59-1.81c-1.25,0.28-2.63,0.89-4.08,1.7
			c-1.32,0.72-2.17,1.31-2.66,1.7c-0.38,0.47-0.86,1.34-1.24,2.64c-1.98,6.65-4.8,11.52-8.42,14.81c-2.6,2.37-3.99,2.56-4.26,0.56
			c-0.17-1.61,0.28-3.62,1.5-6.09c2.2-5.09,5.86-9.71,11.04-13.75c1.56-1.14,3.12-2,4.62-2.67c0.38-0.17,0.56-0.36,0.56-0.7
			c0-0.42-0.35-0.72-1.03-0.86l-4.43-0.17c-7.01,0.25-16.5,1.64-28.54,4.12l-0.56-9.55c-0.18-7.49,0-12.8,0.56-15.81
			c0.17-1.03-0.04-1.75-0.71-2.17c-0.54-0.5-1.64-0.67-3.19-0.5c-3.23,0.36-6.05,1.2-8.53,2.67c-0.51,0.28-0.7,0.5-0.51,0.72
			l0.4,0.33l0.63,0.83c0.49,0.5,0.82,2.45,1,5.73l1.82,19.82l-12.71,3.28c-0.82-5.76-1.38-11.02-1.79-15.72l-0.79-11.05
			c0.1-2.48-0.7-3.67-2.38-3.67c-1.49,0-3.55,0.5-6.26,1.48c-3.23,1.14-5.86,2.56-7.93,4.2c-0.65,0.53-0.77,0.95-0.4,1.2l0.53,0.28
			l0.33,0.14c0.96,0.28,1.66,1.09,1.98,2.45c1.29,6.54,2.39,12.41,3.2,17.67L41.41,119c-10.81,2.89-18.86,5.87-24.2,9.02
			c0,0-2.85,1.7-2.52,4.51C15.04,135.39,18.24,135.25,18.24,135.25L18.24,135.25z M42.51,125.21c-8.13,2.12-13.29,3.4-15.64,3.67
			c-1.8,0.42-2.77,0.31-2.83-0.36c-0.07-0.42,0.68-1.06,2.24-1.89c4.42-2.34,9.59-4.17,15.53-5.62l0.11-0.08L42.51,125.21
			L42.51,125.21z"/>
		<path class="st0" d="M144.51,109.95c-2.52,0.42-4.73,0.92-6.62,1.64c-5.9,2.42-9.07,5.01-9.49,7.88c-0.18,0.83-0.11,1.7,0.17,2.48
			c0.42,1.03,1.1,1.73,2.07,2.09c1.43,0.5,4.81,1.47,10.33,2.78c3.38,0.81,5.27,2.06,5.55,3.79c1.56,3.95-0.17,8.6-5.2,13.78
			c-3.37,3.7-6.36,6.37-8.98,8.02c-2.16,1.31-4.58,2.37-7.4,3.03c-3.3,0.75-6.3-0.84-8.98-4.93l-0.89-1.28
			c-0.49-0.67-0.7-1.22-0.65-1.59c0.07-0.39,0.31-0.56,0.75-0.64l0.79,0.14c0.25,0.22,0.58,0.45,1.11,0.61
			c2.59,1.11,5.11,0.78,7.65-1.03c2.42-1.78,4.72-3.87,6.93-6.32l2.6-3.42l1.18-2.28c0.56-1.56,0.56-2.81,0-3.7
			c-0.88-1.31-3.01-2.17-6.29-2.48l0.25-0.03c-1.92-0.31-4.05-0.7-6.54-1.34c-2-0.53-3.26-1.48-3.8-2.78
			c-1.71-4.87,0.5-9.69,6.64-14.58c4.56-3.81,8.56-6.12,12.16-6.9c3.65-0.78,5.9,0.86,6.65,4.81l0.22,2.09L144.51,109.95
			L144.51,109.95z"/>
	</g>
	<text transform="matrix(1.0119 0 0 1 257.2737 234.1644)" class="st1 st2">TM</text>
	<g>
		<path class="st3" d="M211.64,110.15c1.03-2.23,2.12-4.01,3.2-5.34l2.42-2.39c0.86-0.7,1.73-1.11,2.64-1.2
			c2.25-0.03,2.59,2.62,1.14,7.9c-0.86,3.39-2.39,6.43-4.51,9.04c-1.53,1.89-2.78,3.06-3.87,3.56c-0.97,0.39-1.64,0.45-2.17,0.22
			c-0.86-0.47-1.22-1.78-1.11-4.01C209.47,115.63,210.25,113.04,211.64,110.15L211.64,110.15z M208.69,126.6
			c8.91-0.95,15.86-5.62,20.87-13.92l0.97-1.89c0,0,2.23-5.01,1.14-8.82c-0.92-3.09-3.03-4.26-3.03-4.26
			c-1.92-1.31-4.65-1.53-8.1-0.78c-8.35,1.67-14.53,6.37-18.37,14.11c-0.89,1.2-1.67,2.76-2.2,4.68c-0.5,1.89-0.7,3.73-0.36,5.37
			C200.23,125.4,203.29,127.27,208.69,126.6L208.69,126.6z"/>
		<path class="st3" d="M189.43,105.7l-0.17-0.14v-0.06c-1.56-2.73-3.98-3.92-7.24-3.76c-1.06,0.08-2.28,0.47-3.62,1.22
			c-1.06,0.64-1.73,1.08-1.95,1.5c-0.28,0.53-0.14,0.86,0.39,1.03c1.56,0.31,2.62,0.53,3.12,0.81c1.56,0.86,2.25,2.31,2.23,4.31
			c0.03,4.65-0.84,10.1-2.62,16.39c-1,2.17-0.33,3.2,1.95,3.17l6.35-0.81c2.45-0.61,3.73-1.42,3.84-2.48l0.06-1.86
			c0.06-5.57-0.22-10.16-0.78-13.78l0.03-0.31c2.2-4.37,5.09-6.99,8.71-7.99c1.45-0.39,2.73,0.06,3.95,1.36
			c0.42,0.33,0.67,0.47,0.89,0.33c0.95-0.25,1.81-1.22,2.67-2.78c0.75-1,1.06-2.23,0.95-3.62c-0.11-1.89-1.45-2.84-3.98-2.73
			c-5.01,0.39-9.91,3.76-14.67,10.02L189.43,105.7L189.43,105.7z"/>
		<path class="st3" d="M152.42,84.82c-0.95-2.14-2.84-3.03-5.68-2.59c-4.48,0.61-7.6,1.53-9.39,2.67c-0.38,0.28-0.28,0.58,0.4,0.75
			c1.63,0.53,2.82,2.17,3.7,4.93c3.84,10.88,6.07,24.24,6.74,39.97c0,1.75,0.5,2.92,1.39,3.31c2,1.2,5.01,0.5,8.99-2
			c3.42-2.14,6.87-5.12,10.49-9.05c3.62-3.84,5.79-7.54,6.6-10.91c1.03-3.98-0.36-6.65-3.98-7.93c-2.67-0.86-5.73-0.7-9.13,0.5
			c-2.12,0.72-4.17,1.92-6.23,3.45l-0.28-0.22c-0.92-8.68-1.61-14-2.06-15.98l-0.67-3.53C153.03,86.72,152.78,85.66,152.42,84.82
			L152.42,84.82z M158.07,127.18l-1.59-15.25c3.81-2.95,6.4-3.2,7.77-0.89c1.2,2,1.06,4.81-0.36,8.43
			C162.44,123.12,160.54,125.71,158.07,127.18L158.07,127.18z"/>
		<path class="st3" d="M170.95,134.28c-5.07,6.37-10.66,11.8-16.75,16.11c-7.74,5.46-16.96,9.66-27.55,12.58
			c-16.67,4.54-31.59,4.54-44.74,0l-0.58-0.11c-0.24,0.14-0.28,0.5-0.18,1.09c1.22,16.64,13.23,28.08,36.17,34.43
			c8.36,2.28,16.56,2.78,24.59,1.59c8.35-1.25,15.47-4.31,21.4-9.13c6.32-5.21,10.6-11.97,12.69-20.43
			c2.39-9.32,2.03-20.07-1.06-32.34l-0.42-1.28c-0.17-0.28-0.33-0.33-0.61-0.28c-0.67,0.08-0.84,0.45-0.67,1.14
			c0.95,3.79,1.45,7.9,1.61,12.25c0.17,5.37-0.22,10.44-1.28,15.2c-2.78,12.5-9.57,21.01-20.37,25.52
			c-10.52,4.23-21.31,4.81-32.42,1.72c-6.05-1.81-11.41-4.31-16.25-7.68c-3.98-2.67-6.9-5.4-8.88-8.15
			c-1.11-1.59-1.82-2.95-2.13-4.17l0.15-0.08c4.05,0.42,8.71,0.45,13.96,0.05c9.94-0.7,19.15-2.64,27.48-5.93
			c9.38-3.73,17.84-9.16,25.49-16.34c6.23-5.93,10.21-11.22,12.08-15.86c0.33-0.67,0.33-1.11-0.06-1.28c-0.42-0.17-0.78,0-0.95,0.53
			L170.95,134.28L170.95,134.28z"/>
		<path class="st3" d="M16.5,132.64c3.13,0.25,7.68-0.56,13.49-2.34l11.4-2.92l2.73,17.76c0.63,2.87,1.24,4.56,1.93,5.01l1.36,0.7
			l3.65-0.25c4.65-0.45,6.96-1.25,6.96-2.45l-0.17-1.36l-3.7-22.68l12.61-3.2l2.55,17.17l1.22,5.87c0.68,2,1.82,2.92,3.37,2.75
			c3.52-0.28,5.87-0.95,7.08-1.89c0.42-0.36,0.51-0.81,0.28-1.45l-0.56-1.34c-2.07-6.01-3.69-13.64-4.9-22.88L90.3,117
			c-6.74,6.99-9.05,13.03-6.85,18.12c0.79,1.89,2.02,3.31,3.62,4.06c1.57,0.7,3.33,0.83,5.29,0.45c4.31-0.81,8.22-3.51,11.8-8.13
			c2.02,5.82,6.15,7.79,12.47,5.79c0.31-0.08,0.5-0.2,0.5-0.42c0.01-0.28-0.15-0.61-0.61-0.86c-2.13-0.97-3.35-3.28-3.51-6.85
			c-0.18-2.23,0.12-5.26,0.77-9.21l0.95-5.46c0-1.64-0.85-2.2-2.57-1.81c-1.24,0.28-2.63,0.86-4.08,1.67
			c-1.31,0.78-2.17,1.36-2.66,1.72c-0.38,0.47-0.86,1.34-1.25,2.67c-1.95,6.62-4.79,11.47-8.42,14.75
			c-2.59,2.39-3.99,2.62-4.25,0.58c-0.15-1.61,0.28-3.62,1.49-6.1c2.21-5.12,5.86-9.71,11.05-13.75c1.56-1.14,3.12-2,4.63-2.67
			c0.38-0.14,0.54-0.36,0.54-0.7c0-0.42-0.36-0.72-1.04-0.86l-4.4-0.17c-7.03,0.28-16.5,1.64-28.56,4.12l-0.56-9.55
			c-0.18-7.49,0-12.8,0.56-15.84c0.17-1.03-0.04-1.72-0.7-2.12c-0.54-0.5-1.67-0.7-3.21-0.5c-3.2,0.33-6.04,1.2-8.52,2.62
			c-0.53,0.31-0.7,0.53-0.53,0.75l0.42,0.33l0.63,0.83c0.47,0.5,0.82,2.45,1,5.73l1.84,19.82l-12.72,3.28
			c-0.83-5.79-1.38-11.02-1.78-15.73l-0.81-11.05c0.11-2.48-0.7-3.67-2.38-3.67c-1.47,0-3.56,0.5-6.25,1.47
			c-3.26,1.17-5.87,2.56-7.93,4.23c-0.65,0.5-0.78,0.92-0.42,1.2l0.51,0.25l0.35,0.14c0.97,0.31,1.66,1.08,1.98,2.45
			c1.31,6.57,2.41,12.41,3.19,17.7l-0.24,0.06c-10.8,2.87-18.84,5.87-24.19,9.02c0,0-2.87,1.7-2.53,4.54
			C13.27,132.78,16.5,132.64,16.5,132.64L16.5,132.64z M40.77,122.59c-8.13,2.12-13.3,3.39-15.66,3.67
			c-1.79,0.42-2.76,0.31-2.84-0.36c-0.07-0.42,0.7-1.06,2.25-1.89c4.42-2.34,9.6-4.17,15.54-5.62l0.1-0.08L40.77,122.59
			L40.77,122.59z"/>
		<path class="st3" d="M142.76,107.34c-2.52,0.42-4.73,0.95-6.62,1.64c-5.91,2.45-9.07,5.01-9.49,7.85
			c-0.18,0.86-0.11,1.73,0.17,2.5c0.42,1.03,1.11,1.7,2.09,2.09c1.43,0.53,4.82,1.45,10.31,2.78c3.35,0.84,5.27,2.06,5.55,3.79
			c1.56,3.95-0.2,8.6-5.22,13.78c-3.35,3.73-6.33,6.37-8.98,8.04c-2.14,1.31-4.55,2.34-7.37,3.01c-3.31,0.78-6.32-0.83-8.99-4.9
			l-0.88-1.31c-0.5-0.67-0.71-1.2-0.67-1.59c0.08-0.39,0.32-0.58,0.75-0.64l0.79,0.14c0.25,0.22,0.6,0.45,1.11,0.61
			c2.59,1.09,5.12,0.78,7.67-1.03c2.41-1.78,4.69-3.87,6.9-6.32l2.63-3.42l1.15-2.28c0.56-1.53,0.56-2.81,0-3.7
			c-0.85-1.31-2.99-2.14-6.28-2.48l0.25-0.03c-1.91-0.31-4.05-0.7-6.53-1.36c-2-0.5-3.27-1.45-3.81-2.78
			c-1.73-4.81,0.49-9.66,6.64-14.56c4.56-3.81,8.57-6.12,12.15-6.9c3.66-0.75,5.91,0.86,6.67,4.84l0.25,2.06L142.76,107.34
			L142.76,107.34z"/>
	</g>
</g>
</svg>
