<?xml version="1.0" encoding="utf-8"?>
<!-- Generator: Adobe Illustrator 27.0.0, SVG Export Plug-In . SVG Version: 6.00 Build 0)  -->
<svg version="1.1" id="Layer_1" xmlns="http://www.w3.org/2000/svg" xmlns:xlink="http://www.w3.org/1999/xlink" x="0px" y="0px"
	 viewBox="0 0 274.67 271.46" style="enable-background:new 0 0 274.67 271.46;" xml:space="preserve">
<style type="text/css">
	.st0{fill-rule:evenodd;clip-rule:evenodd;fill:#FFFFFF;}
	.st1{fill:#FFFFFF;}
	.st2{font-family:'Arial-BoldMT';}
	.st3{font-size:12.5294px;}
</style>
<g>
	<g>
		<path class="st0" d="M40.07,118.39c-5.94,1.45-11.12,3.28-15.54,5.62c-1.56,0.84-2.32,1.48-2.25,1.89
			c0.08,0.67,1.04,0.78,2.84,0.36c2.35-0.28,7.53-1.56,15.66-3.67l-0.6-4.29L40.07,118.39z"/>
		<path class="st0" d="M163.88,119.47c1.42-3.62,1.56-6.43,0.36-8.43c-1.36-2.31-3.95-2.06-7.77,0.89l1.59,15.25
			C160.54,125.71,162.44,123.12,163.88,119.47z"/>
		<path class="st0" d="M241.7,207.81c-10.46-34.98-16.2-83.05-16.2-83.05c11.72-10.07,9.52-20.26,9.52-20.26
			c-1.5-11.72-12.52-9.13-12.52-9.13c-1.61-17.14-7.21-73.64-7.35-77.6c-0.11-3.92-3.73-2.17-3.73-2.17
			c-94.98,33.18-193.1,43.39-193.1,43.39c-4.9,0.78-2.7,4.12-2.7,4.12c8.03,17.7,14.01,54.72,14.01,54.72
			c-13.34,3.26-17.83,9.1-17.83,9.1c-6.12,8.18,4.62,10.52,4.62,10.52c6.54,1.22,15.52-2.34,15.52-2.34
			c15.25,92.01,10.62,117.62,10.62,117.62c-0.4,4.76,3.17,3.09,3.17,3.09c97.11-35.4,193.79-43.67,193.79-43.67
			C243.07,211.77,241.7,207.81,241.7,207.81z M137.34,84.91c1.8-1.14,4.91-2.06,9.39-2.67c2.84-0.45,4.73,0.45,5.68,2.59
			c0.36,0.84,0.61,1.89,0.89,3.37l0.67,3.53c0.45,1.98,1.14,7.29,2.06,15.98l0.28,0.22c2.06-1.53,4.12-2.73,6.23-3.45
			c3.4-1.2,6.46-1.36,9.13-0.5c3.62,1.28,5.01,3.95,3.98,7.93c-0.81,3.37-2.98,7.07-6.6,10.91c-3.62,3.92-7.07,6.9-10.49,9.04
			c-3.98,2.5-6.99,3.2-8.99,2c-0.89-0.39-1.39-1.56-1.39-3.31c-0.67-15.72-2.89-29.08-6.74-39.97c-0.88-2.75-2.07-4.4-3.7-4.93
			C137.07,85.49,136.97,85.18,137.34,84.91z M123.94,107.17c4.56-3.81,8.57-6.12,12.15-6.9c3.66-0.75,5.91,0.86,6.67,4.84l0.25,2.06
			l-0.25,0.17c-2.52,0.42-4.73,0.95-6.62,1.64c-5.91,2.45-9.07,5.01-9.49,7.85c-0.18,0.86-0.11,1.73,0.17,2.5
			c0.42,1.03,1.11,1.7,2.09,2.09c1.43,0.53,4.82,1.45,10.31,2.78c3.35,0.84,5.27,2.06,5.55,3.79c1.56,3.95-0.2,8.6-5.22,13.78
			c-3.35,3.73-6.33,6.37-8.98,8.04c-2.14,1.31-4.55,2.34-7.38,3.01c-3.31,0.78-6.32-0.83-8.99-4.9l-0.88-1.31
			c-0.5-0.67-0.71-1.2-0.67-1.59c0.08-0.39,0.32-0.58,0.75-0.64l0.79,0.14c0.25,0.22,0.6,0.45,1.11,0.61
			c2.59,1.09,5.12,0.78,7.67-1.03c2.41-1.78,4.69-3.87,6.9-6.32l2.63-3.42l1.15-2.28c0.56-1.53,0.56-2.81,0-3.7
			c-0.85-1.31-2.99-2.14-6.28-2.48l0.25-0.03c-1.91-0.31-4.05-0.7-6.53-1.36c-2-0.5-3.27-1.45-3.81-2.78
			C115.58,116.91,117.79,112.07,123.94,107.17z M73.89,146.69c-1.54,0.17-2.69-0.75-3.37-2.75l-1.22-5.87l-2.55-17.17l-12.61,3.2
			l3.7,22.68l0.17,1.36c0,1.2-2.31,2-6.96,2.45l-3.65,0.25l-1.36-0.7c-0.7-0.45-1.31-2.14-1.93-5.01l-2.73-17.76l-11.4,2.92
			c-5.8,1.78-10.35,2.59-13.49,2.34c0,0-3.23,0.14-3.58-2.7c-0.33-2.84,2.53-4.54,2.53-4.54c5.34-3.14,13.39-6.15,24.19-9.02
			l0.24-0.06c-0.78-5.29-1.88-11.13-3.19-17.7c-0.32-1.36-1-2.14-1.98-2.45l-0.35-0.14l-0.51-0.25c-0.36-0.28-0.24-0.7,0.42-1.2
			c2.06-1.67,4.68-3.06,7.93-4.23c2.69-0.97,4.77-1.47,6.25-1.47c1.68,0,2.49,1.2,2.38,3.67l0.81,11.05
			c0.4,4.7,0.95,9.94,1.78,15.73l12.72-3.28L64.3,96.23c-0.18-3.28-0.53-5.23-1-5.73l-0.63-0.83l-0.42-0.33
			c-0.17-0.22,0-0.45,0.53-0.75c2.48-1.42,5.32-2.28,8.52-2.62c1.54-0.2,2.67,0,3.21,0.5c0.65,0.39,0.86,1.09,0.7,2.12
			c-0.56,3.03-0.74,8.35-0.56,15.84l0.56,9.55c12.05-2.48,21.53-3.84,28.56-4.12l4.4,0.17c0.68,0.14,1.04,0.45,1.04,0.86
			c0,0.33-0.17,0.56-0.54,0.7c-1.52,0.67-3.08,1.53-4.63,2.67c-5.19,4.04-8.84,8.63-11.05,13.75c-1.21,2.48-1.64,4.48-1.49,6.1
			c0.25,2.03,1.66,1.81,4.25-0.58c3.63-3.29,6.47-8.13,8.42-14.75c0.39-1.34,0.88-2.2,1.25-2.67c0.49-0.36,1.35-0.95,2.66-1.72
			c1.45-0.81,2.84-1.39,4.08-1.67c1.72-0.39,2.57,0.17,2.57,1.81l-0.95,5.46c-0.64,3.95-0.95,6.99-0.77,9.21
			c0.15,3.56,1.38,5.87,3.51,6.85c0.46,0.25,0.63,0.59,0.61,0.86c0,0.22-0.19,0.33-0.5,0.42c-6.32,2-10.45,0.03-12.47-5.79
			c-3.58,4.62-7.49,7.32-11.8,8.13c-1.96,0.39-3.72,0.25-5.29-0.45c-1.6-0.75-2.83-2.17-3.62-4.06c-2.2-5.09,0.11-11.13,6.85-18.12
			l-14.5,2.14c1.21,9.24,2.83,16.87,4.9,22.88l0.56,1.34c0.24,0.64,0.14,1.09-0.28,1.45C79.76,145.75,77.41,146.42,73.89,146.69z
			 M175.99,170.41c-2.09,8.46-6.37,15.22-12.69,20.43c-5.93,4.81-13.05,7.88-21.4,9.13c-8.03,1.2-16.23,0.7-24.59-1.59
			c-22.93-6.35-34.94-17.78-36.17-34.43c-0.1-0.58-0.05-0.95,0.18-1.09l0.58,0.11c13.15,4.54,28.07,4.54,44.74,0
			c10.59-2.92,19.82-7.12,27.55-12.58c6.09-4.31,11.69-9.74,16.75-16.11l0.72-0.86c0.17-0.53,0.53-0.7,0.95-0.53
			c0.39,0.17,0.39,0.61,0.06,1.28c-1.86,4.65-5.84,9.94-12.08,15.86c-7.65,7.18-16.12,12.61-25.49,16.34
			c-8.34,3.28-17.55,5.23-27.48,5.93c-5.25,0.39-9.91,0.36-13.96-0.05l-0.15,0.08c0.31,1.22,1.02,2.59,2.13,4.17
			c1.98,2.76,4.9,5.48,8.88,8.15c4.84,3.37,10.2,5.87,16.25,7.68c11.12,3.09,21.9,2.51,32.42-1.72
			c10.8-4.51,17.59-13.03,20.37-25.52c1.06-4.76,1.45-9.83,1.28-15.2c-0.17-4.34-0.67-8.46-1.61-12.25c-0.17-0.7,0-1.06,0.67-1.14
			c0.28-0.06,0.45,0,0.61,0.28l0.42,1.28C178.02,150.34,178.38,161.08,175.99,170.41z M191.77,125.04l-0.06,1.86
			c-0.11,1.06-1.39,1.86-3.84,2.48l-6.35,0.81c-2.28,0.03-2.95-1-1.95-3.17c1.78-6.29,2.64-11.75,2.62-16.39
			c0.03-2-0.67-3.45-2.23-4.31c-0.5-0.28-1.56-0.5-3.12-0.81c-0.53-0.17-0.67-0.5-0.39-1.03c0.22-0.42,0.89-0.86,1.95-1.5
			c1.34-0.75,2.56-1.14,3.62-1.22c3.26-0.17,5.68,1.03,7.24,3.76v0.06l0.17,0.14l0.11-0.14c4.76-6.26,9.66-9.63,14.67-10.02
			c2.53-0.11,3.87,0.83,3.98,2.73c0.11,1.39-0.19,2.62-0.95,3.62c-0.86,1.56-1.73,2.53-2.67,2.78c-0.22,0.14-0.47,0-0.89-0.33
			c-1.22-1.31-2.5-1.75-3.95-1.36c-3.62,1-6.51,3.62-8.71,7.99l-0.03,0.31C191.55,114.88,191.83,119.47,191.77,125.04z
			 M208.69,126.6c-5.4,0.67-8.46-1.2-9.07-5.51c-0.33-1.64-0.14-3.48,0.36-5.37c0.53-1.92,1.31-3.48,2.2-4.68
			c3.84-7.74,10.02-12.44,18.37-14.11c3.45-0.75,6.18-0.53,8.1,0.78c0,0,2.12,1.17,3.03,4.26c1.08,3.81-1.14,8.82-1.14,8.82
			l-0.97,1.89C224.56,120.98,217.6,125.65,208.69,126.6z"/>
		<path class="st0" d="M219.91,101.22c-0.92,0.08-1.78,0.5-2.64,1.2l-2.42,2.39c-1.09,1.34-2.17,3.12-3.2,5.34
			c-1.39,2.89-2.17,5.48-2.25,7.79c-0.11,2.23,0.25,3.54,1.11,4.01c0.53,0.22,1.2,0.17,2.17-0.22c1.08-0.5,2.34-1.67,3.87-3.56
			c2.12-2.62,3.65-5.65,4.51-9.04C222.5,103.83,222.16,101.19,219.91,101.22z"/>
	</g>
	<path class="st0" d="M24.46,118.81C15.34,79.17,5.69,60.25,5.69,60.25c-8.59,1.5-4.9,4.9-4.9,4.9
		c11.02,17.14,22.03,53.91,22.03,53.91L24.46,118.81z"/>
	<path class="st0" d="M213.7,2.33c-0.47-3.65-3.95-1.92-3.95-1.92c-55.72,24.66-96.63,35.88-96.63,35.88
		c75.65-18.79,101.2-30.17,101.2-30.17L213.7,2.33z"/>
	<path class="st0" d="M41.45,268.63c-0.47,4.12,2.85,2.53,2.85,2.53c39.15-19.43,97.25-37.91,97.25-37.91
		c-65.2,16.89-100.1,30.95-100.1,30.95V268.63z"/>
	<path class="st0" d="M254.23,207.12c0,0-15.59-33.98-25.72-78.12c0,0,7.74,45.73,21.49,83.69l3.01-0.67
		C253,212.02,256.4,211.21,254.23,207.12z"/>
	<text transform="matrix(1.0119 0 0 1 257.2737 234.1644)" class="st1 st2 st3">TM</text>
</g>
</svg>
