<?xml version="1.0" encoding="utf-8"?>
<!-- Generator: Adobe Illustrator 27.0.0, SVG Export Plug-In . SVG Version: 6.00 Build 0)  -->
<svg version="1.1" id="Camada_1" xmlns="http://www.w3.org/2000/svg" xmlns:xlink="http://www.w3.org/1999/xlink" x="0px" y="0px"
	 viewBox="0 0 841.89 124.5" style="enable-background:new 0 0 841.89 124.5;" xml:space="preserve">
<style type="text/css">
	.st0{fill:#010202;}
</style>
<g>
	<path class="st0" d="M150.85,113.5h-5.1l-5.09-7.35h3.81v-2.52h-4.45v9.88h-5.73v-12.61h14.01c0.43,0,0.84,0.1,1.21,0.32
		c0.46,0.25,0.7,0.57,0.7,0.94v4.83c0,0.38-0.23,0.69-0.7,0.95c-0.38,0.21-0.78,0.32-1.21,0.32h-1.11L150.85,113.5L150.85,113.5z
		 M181.19,110.77l-1.91,2.73h-14.01v-12.61h15.92l-1.91,2.73H171v2.52h8.28v2.1H171v2.52H181.19L181.19,110.77z M216,100.89
		l-7.96,12.61h-6.37l-7.94-12.61h6.34l4.78,7.56l4.78-7.56H216L216,100.89z M245.08,110.77l-1.91,2.73h-14.01v-12.61h15.92
		l-1.91,2.73h-8.28v2.52h8.28v2.1h-8.28v2.52H245.08L245.08,110.77z M275.43,113.5h-5.74v-9.88h-4.46v9.88h-5.73v-12.61h14.01
		c0.43,0,0.83,0.1,1.21,0.32c0.46,0.25,0.7,0.57,0.7,0.94V113.5L275.43,113.5z M306.41,113.5h-14.02c-0.43,0-0.82-0.1-1.2-0.32
		c-0.47-0.26-0.7-0.57-0.7-0.94v-10.09c0-0.37,0.23-0.68,0.7-0.94c0.38-0.21,0.78-0.32,1.2-0.32h14.02l-1.91,2.73h-8.28v7.15h4.46
		v-2.52h-2.23v-2.1h7.96V113.5L306.41,113.5z M337.39,110.77l-1.91,2.73h-14.01v-12.61h15.92l-1.91,2.73h-8.28v2.52h8.28v2.1h-8.28
		v2.52H337.39L337.39,110.77z"/>
	<path class="st0" d="M409.34,112.24c0,0.37-0.23,0.69-0.69,0.94c-0.37,0.21-0.77,0.32-1.2,0.32h-11.98c-0.42,0-0.82-0.1-1.19-0.32
		c-0.47-0.26-0.7-0.57-0.7-0.94v-10.09c0-0.37,0.23-0.68,0.7-0.94c0.37-0.21,0.77-0.32,1.19-0.32h11.98c0.43,0,0.83,0.1,1.2,0.32
		c0.46,0.25,0.69,0.57,0.69,0.94V112.24L409.34,112.24z M403.66,110.77v-7.15h-4.41v7.15H403.66L403.66,110.77z M439.99,100.89
		l-1.89,2.73h-8.19v2.52h8.19v2.1h-8.19v5.25h-5.67v-12.61H439.99L439.99,100.89z"/>
	<path class="st0" d="M487.74,103.62h-5.04v9.88h-5.67v-9.88h-5.04v-2.73h15.75V103.62L487.74,103.62z M518.39,113.5h-5.67v-5.25
		h-4.41v5.25h-5.67v-12.61h5.67v5.25h4.41v-5.25h5.67V113.5L518.39,113.5z M549.05,110.77l-1.89,2.73h-13.86v-12.61h15.75
		l-1.89,2.73h-8.19v2.52h8.19v2.1h-8.19v2.52H549.05L549.05,110.77z"/>
	<path class="st0" d="M600.11,100.89l-1.89,2.73h-8.19v2.52h8.19v2.1h-8.19v5.25h-5.67v-12.61H600.11L600.11,100.89z M631.68,113.5
		h-12.6v-2.73h4.6l-3.02-4.83l-4.73,7.56h-6.28l7.86-12.61h6.3L631.68,113.5L631.68,113.5z M660.45,113.5h-15.75v-12.61h5.67v9.88
		h8.19L660.45,113.5L660.45,113.5z M690.47,113.5h-15.75v-12.61h5.67v9.88h8.19L690.47,113.5L690.47,113.5z M720.5,110.77
		l-1.89,2.73h-13.86v-12.61h15.75l-1.89,2.73h-8.19v2.52h8.19v2.1h-8.19v2.52H720.5L720.5,110.77z M750.52,113.5h-5.67v-9.88h-4.41
		v9.88h-5.67v-12.61h13.86c0.43,0,0.83,0.1,1.2,0.32c0.46,0.25,0.69,0.57,0.69,0.94V113.5L750.52,113.5z"/>
	<polygon class="st0" points="72.61,21.65 53.88,21.65 53.88,104.38 31.24,121.03 31.24,21.65 4.05,21.65 4.05,4.5 72.61,4.5 
		72.61,21.65 	"/>
	<path class="st0" d="M141.17,75.49h-20.61l-19.8-42.35h14.74V21.65h-14.82v53.84H78.06V4.5h52.25c1.75,0,3.42,0.67,4.99,2.03
		c1.88,1.58,2.82,3.57,2.82,5.99V38.8c0,2.46-0.94,4.49-2.82,6.07c-1.55,1.3-3.21,1.97-4.99,1.97h-2.59L141.17,75.49L141.17,75.49z"
		/>
	<polygon class="st0" points="220.63,75.49 171.64,75.49 171.64,58.34 188.1,58.34 178.27,35.29 161.2,75.49 135.99,75.49 
		166.11,4.5 190.45,4.5 220.63,75.49 	"/>
	<path class="st0" d="M278.52,75.49H255.9V21.65h-14.82v53.84h-22.62V4.5h52.25c1.75,0,3.42,0.67,4.99,2.03
		c1.88,1.58,2.82,3.57,2.82,5.99V75.49L278.52,75.49z"/>
	<path class="st0" d="M344.03,67.47c0,2.43-0.94,4.42-2.82,5.99c-1.57,1.36-3.24,2.03-4.99,2.03h-44.87l-8.11-17.15h38.17V46.85
		h-29.67c-1.78,0-3.45-0.65-4.99-1.97c-1.86-1.54-2.78-3.55-2.78-6.05v-26.3c0-2.46,0.92-4.46,2.78-5.99
		c1.57-1.36,3.24-2.03,4.99-2.03h52.29v17.15h-37.44v11.51h29.63c1.75,0,3.42,0.67,4.99,2.03c1.89,1.58,2.82,3.57,2.82,5.99V67.47
		L344.03,67.47z"/>
	<polygon class="st0" points="410.23,4.5 410.24,21.65 372.1,21.65 372.1,33.17 402.49,33.17 402.49,46.85 372.1,46.85 
		372.1,104.73 349.48,121.38 349.48,4.5 410.23,4.5 	"/>
	<path class="st0" d="M472.72,67.47c0,2.43-0.94,4.42-2.82,5.99c-1.57,1.36-3.24,2.03-4.99,2.03h-44.48c-1.75,0-3.42-0.67-4.99-2.03
		c-1.86-1.54-2.78-3.53-2.78-5.99V12.52c0-2.46,0.92-4.46,2.78-5.99c1.57-1.36,3.24-2.03,4.99-2.03h44.48
		c1.75,0,3.42,0.67,4.99,2.03c1.88,1.58,2.82,3.57,2.82,5.99V67.47L472.72,67.47z M450.1,58.34V21.65h-14.82v36.69H450.1
		L450.1,58.34z"/>
	<path class="st0" d="M541.27,75.49h-20.61l-19.8-42.35h14.74V21.65h-14.82v53.84h-22.62V4.5h52.25c1.75,0,3.42,0.67,4.99,2.03
		c1.88,1.58,2.82,3.57,2.82,5.99V38.8c0,2.46-0.94,4.49-2.82,6.07c-1.55,1.3-3.21,1.97-4.99,1.97h-2.59L541.27,75.49L541.27,75.49z"
		/>
	<path class="st0" d="M641.19,75.49h-22.62V21.65h-14.82v53.84h-22.62V21.65H566.3v53.84h-22.62V4.5h89.69
		c1.75,0,3.42,0.67,4.99,2.03c1.89,1.58,2.82,3.57,2.82,5.99V75.49L641.19,75.49z"/>
	<polygon class="st0" points="707.38,58.34 699.27,75.49 646.63,75.49 646.63,4.5 707.38,4.5 699.27,21.65 669.25,21.65 
		669.25,33.17 699.65,33.17 699.65,46.85 669.25,46.85 669.25,58.34 707.38,58.34 	"/>
	<path class="st0" d="M772.92,75.49h-20.61l-19.8-42.35h14.74V21.65h-14.82v53.84h-22.62V4.5h52.25c1.75,0,3.42,0.67,4.99,2.03
		c1.88,1.58,2.82,3.57,2.82,5.99V38.8c0,2.46-0.94,4.49-2.82,6.07c-1.55,1.3-3.21,1.97-4.99,1.97h-2.59L772.92,75.49L772.92,75.49z"
		/>
	<path class="st0" d="M835.39,67.47c0,2.43-0.94,4.42-2.82,5.99c-1.57,1.36-3.24,2.03-4.99,2.03h-44.87l-8.11-17.15h38.17V46.85
		H783.1c-1.78,0-3.45-0.65-4.99-1.97c-1.86-1.54-2.78-3.55-2.78-6.05v-26.3c0-2.46,0.94-4.44,2.78-5.99
		c1.59-1.34,3.24-2.03,4.99-2.03h53.25l-6.43,17.15h-31.97v11.51h29.63c1.75,0,3.42,0.67,4.99,2.03c1.88,1.58,2.82,3.57,2.82,5.99
		V67.47L835.39,67.47z"/>
</g>
</svg>
